<svg width="130" height="130" viewBox="0 0 400 400" fill="none" xmlns="http://www.w3.org/2000/svg">
<g clip-path="url(#clip0_133_187)">
<rect width="400" height="400" rx="44" fill="url(#paint0_diamond_133_187)"/>
<path d="M63.1766 329.744C57.3033 319.593 45.3948 313.72 30.804 311.014C8.67493 285.116 -6.42462 238.499 -6.42462 211.723C-6.42462 210.844 -6.42462 209.988 -6.42462 209.133C-5.66155 209.526 -4.89848 209.942 -4.11229 210.381C19.0111 223.747 51.8693 260.143 63.246 292.284C58.182 306.343 57.3264 319.5 63.1766 329.744Z" fill="#C3ADFF"/>
<path d="M63.1767 329.744C51.4531 329.744 40.4002 337.12 30.6884 348.497C-2.79423 354.717 -50.6827 344.45 -73.8754 331.085C-74.6153 330.646 -75.3553 330.206 -76.0721 329.744C-75.3553 329.281 -74.6153 328.842 -73.8754 328.403C-50.752 315.014 -2.79424 304.794 30.7115 311.014C40.4233 322.368 51.4531 329.744 63.1767 329.744Z" fill="#C3ADFF"/>
<path d="M63.1766 367.227C51.7999 399.345 18.9878 435.741 -4.18175 449.107C-4.92169 449.546 -5.68476 449.962 -6.49408 450.355C-6.49408 449.5 -6.49408 448.644 -6.49408 447.765C-6.49408 420.989 8.60545 374.395 30.7114 348.497C45.3947 345.792 57.3263 339.918 63.1997 329.744C57.3263 339.895 58.1819 353.145 63.1766 367.227Z" fill="#C3ADFF"/>
<path d="M132.87 447.765C132.87 448.644 132.87 449.5 132.87 450.355C132.107 449.962 131.344 449.546 130.558 449.107C107.435 435.741 74.5764 399.345 63.1997 367.227C68.1943 353.145 69.0499 339.895 63.1997 329.744C69.073 339.918 81.0047 345.792 95.5724 348.497C117.771 374.418 132.87 420.989 132.87 447.765Z" fill="#C3ADFF"/>
<path d="M202.518 329.744C201.801 330.206 201.061 330.646 200.321 331.085C177.198 344.45 129.24 354.717 95.7574 348.52C86.0456 337.143 74.9464 329.767 63.3848 329.767C75.1083 329.767 86.1381 322.391 95.7574 311.037C129.263 304.817 177.152 315.037 200.344 328.426C200.969 328.749 201.709 329.281 202.518 329.744Z" fill="#C3ADFF"/>
<path d="M132.801 209.133C132.038 209.526 131.275 209.942 130.489 210.381C107.365 223.746 74.5071 260.143 63.1304 292.284C51.7537 260.143 18.9417 223.746 -4.22789 210.381C-4.96784 209.942 -5.73091 209.526 -6.54022 209.133C-5.88309 191.106 1.73998 174.037 14.7253 161.517C27.7106 148.996 45.0458 142 63.0842 142C81.1225 142 98.4577 148.996 111.443 161.517C124.428 174.037 132.051 191.106 132.709 209.133H132.801Z" fill="#FF8780"/>
<path d="M132.87 211.723C132.87 238.499 117.771 285.116 95.6418 311.014C80.9585 313.72 69.05 319.593 63.2692 329.744C69.1194 319.593 68.2638 306.343 63.2692 292.284C74.6458 260.143 107.458 223.747 130.627 210.381C131.367 209.942 132.13 209.526 132.94 209.133C132.847 209.988 132.87 210.821 132.87 211.723Z" fill="#C3ADFF"/>
<path d="M25.6701 329.682C31.1087 326.126 35.6332 321.339 38.8769 315.709C42.1207 310.079 43.9925 303.764 44.3408 297.275C59.3032 304.23 66.787 303.781 81.7413 297.31C83.6283 310.799 92.84 322.221 100.483 329.771C89.3686 336.188 80.9753 346.854 81.8121 362.178C69.1913 354.192 61.9539 352.015 44.3115 362.201C44.8196 346.849 38.0563 338.418 25.6701 329.682Z" fill="#FFE69A"/>
<path d="M-6.51701 211.722C-6.51701 238.499 8.58251 285.116 30.7115 311.014C-2.79417 304.794 -50.6826 315.014 -73.8753 328.403C-74.6152 328.842 -75.3552 329.281 -76.072 329.744C-91.4204 320.192 -102.455 305.048 -106.845 287.511C-111.235 269.975 -108.636 251.418 -99.5986 235.762C-90.5606 220.105 -75.7909 208.574 -58.4093 203.606C-41.0276 198.637 -22.3952 200.619 -6.44764 209.133C-6.49389 209.988 -6.51701 210.821 -6.51701 211.722Z" fill="#FF8780"/>
<path d="M63.1768 329.744C51.4532 329.744 40.4234 322.368 30.8041 311.014C45.3949 313.72 57.3034 319.501 63.1768 329.744Z" fill="#FF8780"/>
<path d="M30.6884 348.497C8.58244 374.395 -6.51709 420.989 -6.51709 447.765C-6.51709 448.644 -6.51709 449.5 -6.51709 450.355C-22.4646 458.869 -41.0971 460.851 -58.4787 455.882C-75.8604 450.913 -90.6301 439.383 -99.668 423.726C-108.706 408.07 -111.304 389.513 -106.914 371.976C-102.524 354.44 -91.4898 339.296 -76.1415 329.744C-75.4246 330.206 -74.6847 330.646 -73.9448 331.085C-50.6827 344.45 -2.79424 354.717 30.6884 348.497Z" fill="#FF8780"/>
<path d="M63.1766 329.744C57.3033 339.918 45.3716 345.792 30.6883 348.497C40.4001 337.12 51.4531 329.744 63.1766 329.744Z" fill="#FF8780"/>
<path d="M132.801 450.356C132.144 468.382 124.521 485.451 111.535 497.971C98.5502 510.492 81.215 517.488 63.1766 517.488C45.1383 517.488 27.803 510.492 14.8177 497.971C1.83241 485.451 -5.79062 468.382 -6.44775 450.356C-5.68468 449.963 -4.92161 449.546 -4.13542 449.107C18.9879 435.742 51.8462 399.346 63.2228 367.227C74.5995 399.346 107.412 435.742 130.581 449.107C131.275 449.546 132.038 449.963 132.801 450.356Z" fill="#FF8780"/>
<path d="M63.1767 367.227C58.1821 353.145 57.3265 339.895 63.1767 329.744C69.0269 339.895 68.1713 353.145 63.1767 367.227Z" fill="#FF8780"/>
<path d="M225.641 423.555C216.622 439.172 201.9 450.684 184.57 455.673C167.24 460.663 148.651 458.74 132.709 450.309C132.709 449.453 132.709 448.598 132.709 447.719C132.709 420.942 117.609 374.372 95.5031 348.474C129.148 354.717 177.082 344.45 200.206 331.062C200.946 330.622 201.686 330.183 202.402 329.721C217.658 339.32 228.602 354.458 232.935 371.954C237.268 389.45 234.654 407.945 225.641 423.555Z" fill="#FF8780"/>
<path d="M95.665 348.497C80.9817 345.792 69.05 339.918 63.2923 329.744C74.9002 329.744 85.9532 337.12 95.665 348.497Z" fill="#FF8780"/>
<path d="M63.1767 329.744C57.3265 319.593 58.1821 306.343 63.1767 292.284C68.1713 306.343 69.0269 319.5 63.1767 329.744Z" fill="#FF8780"/>
<path d="M95.6418 311.014C85.93 322.368 74.8308 329.744 63.2692 329.744C69.05 319.501 80.9585 313.72 95.6418 311.014Z" fill="#FF8780"/>
<path d="M202.518 329.744C201.801 329.282 201.061 328.842 200.321 328.403C177.198 315.015 129.24 304.794 95.7343 311.014C117.863 285.116 132.963 238.499 132.963 211.723C132.963 210.844 132.963 209.988 132.963 209.133C148.899 200.773 167.452 198.903 184.735 203.916C202.019 208.928 216.693 220.434 225.683 236.024C234.673 251.613 237.283 270.076 232.964 287.547C228.646 305.017 217.736 320.138 202.518 329.744Z" fill="#FF8780"/>
<path d="M55.9748 -47L69.0753 55.8291L145.403 -14.7745L89.1056 72.6228L193 67.5797L93.6579 98.2923L176.46 161.18L80.3551 120.835L103.37 221.95L55.7724 129.761L8.68104 222L31.3921 120.835L-64.4598 161.18L18.3421 98.4436L-81 67.731L22.8438 72.7741L-33.4028 -14.4215L42.9246 56.1822L55.9748 -47Z" fill="url(#paint1_radial_133_187)"/>
<path d="M135.223 229.294C135.223 218.501 129.269 206.61 109.103 206.61C94.9821 206.502 86.4553 210.729 77.029 216.99C70.1752 221.703 64.8864 229.24 61.1447 236.58H51.9703C48.7143 238.019 46.034 238.163 44.271 241.203C42.5313 244.243 41.8244 247.765 42.2563 251.241C43.1197 255.144 44.7387 260.775 48.8942 260.775C69.9593 260.775 106.981 261.207 112.108 260.541C116.605 260.037 135.223 254.083 135.223 229.294ZM81.0226 236.652C102.609 219.472 113.133 229.744 106.711 236.652H81.0226Z" fill="white"/>
<path d="M166.129 154.55L242.87 154.082C246.065 154.087 249.128 155.358 251.387 157.617C253.646 159.877 254.918 162.94 254.922 166.135C254.88 169.316 253.596 172.356 251.345 174.604C249.093 176.853 246.052 178.132 242.87 178.169C241.754 178.619 169.636 178.277 169.636 178.277L157.332 178.169C155.711 178.232 154.094 177.967 152.579 177.39C151.063 176.813 149.679 175.936 148.51 174.811C147.341 173.687 146.411 172.338 145.776 170.845C145.141 169.353 144.814 167.748 144.814 166.126C144.814 164.504 145.141 162.898 145.776 161.406C146.411 159.914 147.341 158.565 148.51 157.44C149.679 156.316 151.063 155.439 152.579 154.861C154.094 154.284 155.711 154.019 157.332 154.082L166.129 154.55Z" fill="white"/>
<path d="M199.39 245.646L199.229 193.064C199.228 191.489 199.796 189.967 200.83 188.778C201.863 187.589 203.291 186.814 204.85 186.594C206.41 186.375 207.996 186.727 209.317 187.586C210.638 188.444 211.603 189.751 212.037 191.265C213.17 195.241 222.362 235.554 223.424 236.435C224.431 236.921 228.91 236.435 230.619 236.292C232.724 232.694 235.548 224.545 244.345 224.545C245.932 224.53 247.505 224.832 248.974 225.433C250.443 226.033 251.777 226.921 252.9 228.043C254.022 229.165 254.909 230.499 255.509 231.968C256.11 233.437 256.412 235.011 256.398 236.597C256.218 239.997 255.732 241.023 253.699 245.988C252.518 249.209 250.869 252.24 248.806 254.982C247.684 256.419 246.248 257.58 244.608 258.375C242.968 259.17 241.167 259.579 239.344 259.569H213.062C205.417 259.569 199.39 257.321 199.39 245.592" fill="white"/>
<path d="M175.789 209.668C175.051 209.668 163.61 225.858 156.936 227.657C150.262 229.456 144.236 225.39 143.894 215.982C143.853 213.342 144.579 210.747 145.984 208.512C147.389 206.277 149.413 204.497 151.809 203.39C158.717 199.792 182.301 192.129 186.33 191.157C187.059 190.945 187.829 190.918 188.57 191.081C189.312 191.243 190 191.589 190.573 192.087C191.146 192.585 191.585 193.218 191.849 193.93C192.114 194.641 192.195 195.407 192.087 196.158C191.637 199.252 186.348 244.98 185.737 249.999C185.43 251.709 184.773 253.337 183.806 254.781C182.84 256.225 181.585 257.453 180.121 258.388C178.657 259.323 177.015 259.945 175.298 260.215C173.582 260.485 171.829 260.397 170.148 259.956C168.468 259.516 166.897 258.732 165.534 257.655C164.171 256.577 163.045 255.23 162.229 253.696C161.412 252.163 160.921 250.477 160.787 248.745C160.654 247.013 160.88 245.272 161.451 243.631C164.761 234.853 176.238 209.668 175.789 209.668Z" fill="white"/>
<path d="M380 243.955C380 255.396 373.812 259.839 362.91 259.839H294.552C283.759 259.839 267.299 259.641 268.594 240.357C268.594 240.357 273.505 164.551 273.505 155.539C273.505 150.142 278.146 142.589 285.612 143.002C291.314 143.308 292.794 146.783 294.013 150.52C295.092 150.52 305.975 150.52 305.975 150.52C305.975 150.52 339.507 148.721 357.55 148.721C367.983 148.721 370.7 153.866 372.337 165.721C375.377 187.577 380 243.955 380 243.955ZM356.291 242.462C360.59 242.462 360.554 240.555 360.554 237.281C360.554 234.007 356.758 177.917 355.895 174.049C355.319 171.405 354.977 168.221 351.218 168.221H293.653C293.653 168.221 291.728 227.585 291.656 236.579C291.656 240.753 294.624 242.21 297.754 242.3C302.054 242.3 344.004 242.462 356.291 242.462Z" fill="white"/>
<path d="M312.037 188.081C307.378 188.441 303.547 185.886 302.773 181.641C302.09 177.845 305.094 172.125 310.203 172.34C320.186 172.79 333.372 173.672 341.611 174.355C342.773 174.501 343.855 175.02 344.695 175.834C345.536 176.649 346.088 177.714 346.271 178.87C346.395 179.551 346.383 180.25 346.235 180.926C346.088 181.602 345.807 182.242 345.411 182.809C345.014 183.376 344.51 183.859 343.925 184.23C343.341 184.6 342.689 184.852 342.007 184.969C337.456 185.742 319.467 187.487 312.037 188.081Z" fill="white"/>
<path d="M239.11 191.841C240.618 191.112 242.261 190.705 243.934 190.646C245.608 190.587 247.276 190.877 248.831 191.499C250.386 192.12 251.794 193.059 252.967 194.255C254.139 195.451 255.049 196.879 255.639 198.446C256.228 200.013 256.485 201.687 256.392 203.359C256.3 205.031 255.859 206.665 255.1 208.158C254.34 209.65 253.278 210.968 251.98 212.027C250.683 213.086 249.179 213.863 247.565 214.309C237.851 215.748 199.39 222.224 199.39 222.224C197.814 222.581 196.162 222.342 194.751 221.554C193.341 220.766 192.271 219.484 191.749 217.954C191.226 216.425 191.288 214.757 191.921 213.27C192.555 211.784 193.716 210.584 195.181 209.902C200.937 207.617 223.262 198.874 239.11 191.841Z" fill="white"/>
<path d="M189.299 181.155C189.299 181.155 186.924 189.017 180.43 189.017C173.936 189.017 171.435 181.155 171.435 181.155C170.23 175.759 163.394 151.689 169.816 146.023C176.239 140.356 189.604 143.342 191.997 149.369C193.94 154.424 189.784 176.55 189.299 181.155Z" fill="white"/>
<path d="M355.931 222.368C353.394 217.367 341.684 215.173 333.481 207.095C339.075 207.545 342.745 208.175 346.343 207.725C352.405 206.952 355.103 202.652 354.726 197.237C354.557 194.612 353.4 192.148 351.487 190.342C349.575 188.537 347.048 187.523 344.418 187.505C335.945 188.261 305.885 192.38 302.899 192.776C299.517 193.244 296.621 195.403 296.621 199.054C296.652 200.587 297.226 202.06 298.24 203.209C299.255 204.359 300.644 205.111 302.162 205.332C304.698 205.638 311.012 205.98 314.088 206.358C309.213 209.074 296.099 214.201 295.488 224.131C295.488 233.269 302.216 240.465 312.02 238.522C321.482 236.615 314.358 216.414 322.921 209.308C328.228 226.721 328.857 232.064 337.042 236.831C345.821 241.904 362.281 234.852 355.931 222.368Z" fill="white"/>
<path d="M122.955 178.583C126.152 178.583 129.217 179.853 131.478 182.113C133.738 184.373 135.008 187.439 135.008 190.636C135.008 193.832 133.738 196.898 131.478 199.158C129.217 201.418 126.152 202.688 122.955 202.688C106.513 202.688 63.4654 202.562 63.4654 202.562C58.9322 229.006 52.672 242.138 52.672 242.138C44.1632 266.172 30.5995 266.297 24.1774 258.94C18.9606 252.986 20.6875 245.916 25.5985 238.936C41.7886 215.82 44.577 195.421 42.814 178.529C42.0945 171.495 41.0151 165.235 50.6213 162.861C62.9797 159.82 88.8479 152.787 117.486 145.321C123.153 143.846 132.615 145.321 133.479 157.32C134.072 165.325 127.488 169.517 121.894 170.686C116.299 171.855 67.351 174.284 65.3543 174.284C65.3543 176.424 65.2283 180.562 65.2283 180.562L122.955 178.583Z" fill="white"/>
<path d="M210.633 180.184C210.633 180.184 212.252 188.243 218.728 188.855C225.205 189.466 228.425 181.875 228.425 181.875C230.134 176.64 239.218 153.29 233.336 147.066C227.453 140.842 213.835 142.515 210.939 148.289C208.529 153.128 210.579 175.489 210.633 180.184Z" fill="white"/>
<path d="M362.975 203L376.075 305.829L452.403 235.225L396.106 322.623L500 317.58L400.658 348.292L483.46 411.18L387.355 370.835L410.37 471.95L362.772 379.761L315.681 472L338.392 370.835L242.54 411.18L325.342 348.444L226 317.731L329.844 322.774L273.597 235.579L349.925 306.182L362.975 203Z" fill="url(#paint2_radial_133_187)"/>
<path d="M338.927 24.6945C329.584 24.4403 320.282 26.7857 312.048 31.472C303.814 36.1582 296.967 43.0031 292.265 51.2513C285.168 42.0644 281.529 30.6048 281.966 18.8221C282.403 7.03942 286.889 -4.33843 294.662 -13.3757C302.434 -22.413 313.013 -28.5514 324.597 -30.7466C336.182 -32.9418 348.057 -31.0582 358.202 -25.4163C350.751 -19.5321 345.007 -11.7387 341.606 -2.89614C338.205 5.94645 337.277 15.4945 338.927 24.6945Z" fill="#FFC887"/>
<path d="M430.377 103.346C422.605 112.383 412.027 118.521 400.443 120.717C388.859 122.913 376.985 121.03 366.839 115.389C374.291 109.505 380.034 101.712 383.436 92.8692C386.837 84.0266 387.764 74.4785 386.115 65.2786C395.458 65.5328 404.76 63.1874 412.994 58.5011C421.228 53.8149 428.074 46.97 432.777 38.7218C439.873 47.9089 443.511 59.3681 443.073 71.1502C442.636 82.9323 438.149 94.3093 430.377 103.346Z" fill="#FFC887"/>
<path d="M383.379 20.7247C375.495 22.3429 368.058 25.8158 361.685 30.8552C354.762 27.0076 346.983 24.8912 338.989 24.6802C337.335 15.4881 338.254 5.94676 341.644 -2.89255C345.034 -11.7318 350.764 -19.526 358.202 -25.416C366.291 -20.9182 372.922 -14.2289 377.365 -6.08653C381.808 2.05581 383.889 11.3344 383.379 20.7247Z" fill="#FA6C75"/>
<path d="M426.91 47.0375C421.841 52.9389 415.537 57.6461 408.471 60.8055C401.405 63.9649 393.762 65.4942 386.115 65.2787C384.716 57.4035 381.459 50.0276 376.613 43.7624C380.633 36.7006 382.95 28.8263 383.374 20.788C392.584 18.8806 402.071 19.5518 410.788 22.7276C419.505 25.9034 427.113 31.4603 432.772 38.7852C431.087 41.7149 429.124 44.479 426.91 47.0375Z" fill="#FA6C75"/>
<path d="M376.613 43.7624C372.555 38.5105 367.479 34.1454 361.679 30.9185C368.053 25.8791 375.49 22.4062 383.374 20.788C382.95 28.8263 380.633 36.7005 376.613 43.7624Z" fill="#F2E149"/>
<path d="M383.379 20.7245C383.889 11.3342 381.808 2.05564 377.365 -6.0867C372.922 -14.229 366.291 -20.9184 358.202 -25.4162C367.548 -32.7857 379.06 -36.7461 390.781 -36.6244C402.502 -36.5027 413.709 -32.3064 422.497 -24.7486C431.284 -17.1909 437.11 -6.73824 438.984 4.83259C440.859 16.4034 438.665 28.3783 432.777 38.7218C427.118 31.3969 419.51 25.8399 410.794 22.6641C402.077 19.4883 392.59 18.8171 383.379 20.7245Z" fill="#FFC887"/>
<path d="M374.175 108.354C371.96 110.93 369.503 113.287 366.839 115.389C358.75 110.89 352.117 104.199 347.673 96.056C343.228 87.9125 341.145 78.6327 341.653 69.2405C349.537 67.6187 356.976 64.1493 363.357 59.1181C370.277 62.9721 378.057 65.089 386.053 65.2932C387.416 72.8172 387.055 80.6 384.998 88.0578C382.941 95.5155 379.241 102.454 374.175 108.354Z" fill="#FA6C75"/>
<path d="M341.653 69.2404C332.445 71.1498 322.959 70.4803 314.244 67.3058C305.528 64.1313 297.922 58.5753 292.264 51.2513C296.967 43.0031 303.814 36.1582 312.048 31.472C320.282 26.7857 329.584 24.4403 338.927 24.6945C340.332 32.5675 343.588 39.9419 348.428 46.2108C344.388 53.2851 342.065 61.1811 341.653 69.2404Z" fill="#FA6C75"/>
<path d="M363.419 59.1036C357.038 64.1348 349.599 67.6042 341.715 69.226C342.135 61.1885 344.456 53.3154 348.485 46.2598C352.543 51.5116 357.619 55.8767 363.419 59.1036Z" fill="#F2E149"/>
<path d="M363.419 59.1038C368.759 54.8872 373.243 49.6732 376.613 43.7625C381.459 50.0277 384.717 57.4036 386.115 65.2788C378.119 65.0746 370.339 62.9577 363.419 59.1038Z" fill="#F2E149"/>
<path d="M354.315 37.9294C352.1 40.5046 350.137 43.2868 348.457 46.2353C343.617 39.9664 340.36 32.592 338.955 24.719C346.95 24.93 354.728 27.0464 361.651 30.894C358.987 32.9967 356.53 35.3533 354.315 37.9294Z" fill="#F2E149"/>
<path d="M370.726 52.0438C368.512 54.6199 366.054 56.9765 363.391 59.0792C357.591 55.8523 352.515 51.4871 348.457 46.2353C351.827 40.3245 356.311 35.1105 361.651 30.894C367.451 34.1209 372.526 38.486 376.585 43.7379C374.905 46.6864 372.942 49.4686 370.726 52.0438Z" fill="#D78BF4"/>
<path d="M366.839 115.389C357.496 122.775 345.979 126.749 334.25 126.635C322.521 126.52 311.304 122.324 302.511 114.762C293.717 107.199 287.89 96.7367 286.022 85.1566C284.154 73.5766 286.36 61.5948 292.264 51.2514C297.922 58.5754 305.528 64.1313 314.244 67.3058C322.959 70.4803 332.445 71.1498 341.653 69.2405C341.145 78.6326 343.229 87.9124 347.673 96.0559C352.117 104.199 358.75 110.89 366.839 115.389Z" fill="#FFC887"/>
</g>
<defs>
<radialGradient id="paint0_diamond_133_187" cx="0" cy="0" r="1" gradientUnits="userSpaceOnUse" gradientTransform="translate(200 200) rotate(45.778) scale(572.809 558.82)">
<stop offset="0.401042" stop-color="#655A7D"/>
<stop offset="1" stop-color="#946380"/>
</radialGradient>
<radialGradient id="paint1_radial_133_187" cx="0" cy="0" r="1" gradientUnits="userSpaceOnUse" gradientTransform="translate(56 87.5) rotate(90) scale(134.5 137)">
<stop stop-color="#F4EAB5"/>
<stop offset="1" stop-color="#FFE3AD"/>
</radialGradient>
<radialGradient id="paint2_radial_133_187" cx="0" cy="0" r="1" gradientUnits="userSpaceOnUse" gradientTransform="translate(363 337.5) rotate(90) scale(134.5 137)">
<stop stop-color="#FFF5DB"/>
<stop offset="1" stop-color="#F4D8B5"/>
</radialGradient>
<clipPath id="clip0_133_187">
<rect width="400" height="400" rx="44" fill="white"/>
</clipPath>
</defs>
</svg>
