<svg viewBox="-100 -100 1007 772" fill="none" xmlns="http://www.w3.org/2000/svg"><path d="m697.48 357 10.471 82.187 61.006-56.431-44.997 69.853 83.04-4.03-79.401 24.547 66.181 50.263-76.814-32.246 18.395 80.817-38.043-73.682L659.679 572l18.153-80.857-76.612 32.246 66.181-50.142L588 448.699l82.999 4.031-44.956-69.691 61.006 56.43L697.48 357Z" fill="url(#a)"><animateTransform attributeName="transform" attributeType="XML" type="rotate" from="0 697.5 464.5" to="360 697.5 464.5" dur="36s" repeatCount="indefinite"/></path><path d="m109.48 77 10.471 82.187 61.006-56.431-44.997 69.853 83.04-4.03-79.401 24.547 66.181 50.263-76.814-32.246 18.395 80.817-38.043-73.682L71.679 292l18.153-80.857-76.612 32.246 66.181-50.142L0 168.699l83 4.031-44.957-69.691 61.006 56.43L109.48 77Z" fill="url(#b)"><animateTransform attributeName="transform" attributeType="XML" type="rotate" from="0 109.5 184.5" to="360 109.5 184.5" dur="36s" repeatCount="indefinite"/></path><g><animateTransform attributeName="transform" attributeType="XML" type="rotate" from="0 685 93" to="360 685 93" dur="36s" repeatCount="indefinite"/><path d="M641.384 91.979c-7.249 5.9-12.772 13.743-15.959 22.665a52.95 52.95 0 0 0-2.102 27.896c-11.371-2.338-21.602-8.653-28.954-17.872C587.018 115.45 583 103.899 583 91.978c0-11.92 4.018-23.471 11.369-32.69 7.352-9.217 17.583-15.533 28.954-17.87a52.95 52.95 0 0 0 2.102 27.895c3.187 8.922 8.71 16.766 15.959 22.666Z" fill="url(#c)"/><path d="M762.004 91.979c0 11.919-4.017 23.47-11.367 32.688-7.351 9.218-17.582 15.534-28.952 17.873a52.95 52.95 0 0 0-2.101-27.896c-3.188-8.922-8.711-16.766-15.96-22.665 7.249-5.9 12.772-13.744 15.96-22.666a52.95 52.95 0 0 0 2.101-27.896c11.37 2.34 21.601 8.655 28.952 17.873 7.35 9.218 11.367 20.77 11.367 32.689Z" fill="url(#d)"/><path d="M672.498 59.983c-4.922 6.368-8.296 13.85-9.842 21.827-7.758 1.597-15.035 5.064-21.234 10.117-7.248-5.89-12.773-13.724-15.966-22.636a52.963 52.963 0 0 1-2.133-27.873 48.877 48.877 0 0 1 27.133 2.16c8.677 3.276 16.306 8.953 22.042 16.405Z" fill="url(#e)"/><path d="M722.659 51.548a52.676 52.676 0 0 1-5.002 22.462c-3.297 7.002-8.095 13.146-14.033 17.969-6.195-5.06-13.474-8.527-21.234-10.118-1.557-7.975-4.934-15.456-9.855-21.826 5.74-7.452 13.37-13.13 22.05-16.406a48.9 48.9 0 0 1 27.138-2.16c.632 3.32.946 6.696.936 10.079Z" fill="url(#f)"/><path d="M682.39 81.862a48.919 48.919 0 0 0-19.697 0c1.546-7.977 4.92-15.46 9.842-21.827 4.92 6.37 8.298 13.851 9.855 21.827Z" fill="url(#g)"/><path d="M672.498 59.983c-5.736-7.452-13.365-13.13-22.042-16.406a48.876 48.876 0 0 0-27.133-2.16c2.281-11.68 8.426-22.19 17.392-29.74C649.681 4.126 660.914 0 672.504 0c11.591 0 22.824 4.126 31.789 11.677 8.966 7.55 15.112 18.06 17.392 29.74a48.9 48.9 0 0 0-27.138 2.16c-8.679 3.277-16.31 8.954-22.049 16.406Z" fill="url(#h)"/><path d="M722.659 132.423a52.828 52.828 0 0 1-.974 10.117 48.904 48.904 0 0 1-27.138-2.16c-8.679-3.276-16.31-8.954-22.049-16.406 4.92-6.37 8.298-13.851 9.855-21.826 7.759-1.591 15.038-5.059 21.233-10.118 5.94 4.816 10.741 10.952 14.045 17.947a52.695 52.695 0 0 1 5.028 22.446Z" fill="url(#i)"/><path d="M672.498 123.974c-5.737 7.452-13.365 13.13-22.043 16.406a48.873 48.873 0 0 1-27.132 2.16 52.95 52.95 0 0 1 2.102-27.896c3.187-8.922 8.71-16.766 15.959-22.665 6.199 5.053 13.477 8.52 21.234 10.117 1.549 7.998 4.937 15.499 9.88 21.878Z" fill="url(#j)"/><path d="M682.39 102.096c-1.557 7.975-4.935 15.456-9.855 21.827-4.922-6.368-8.296-13.85-9.842-21.827a48.9 48.9 0 0 0 19.697 0Z" fill="url(#k)"/><path d="M682.39 102.096a52.98 52.98 0 0 0 0-20.235c7.76 1.59 15.039 5.059 21.234 10.118-6.195 5.059-13.474 8.527-21.234 10.117Z" fill="url(#l)"/><path d="M661.681 91.979c0 3.397.326 6.786.975 10.117-7.758-1.597-15.035-5.064-21.234-10.117 6.199-5.053 13.476-8.52 21.234-10.118a52.913 52.913 0 0 0-.975 10.118Z" fill="url(#m)"/><path d="M683.327 91.979a52.909 52.909 0 0 1-.974 10.117 48.9 48.9 0 0 1-19.697 0 52.98 52.98 0 0 1 0-20.235 48.922 48.922 0 0 1 19.697 0c.648 3.332.975 6.72.974 10.118Z" fill="url(#n)"/><path d="M721.685 142.54c-2.268 11.692-8.408 22.215-17.375 29.776-8.968 7.562-20.207 11.694-31.806 11.694-11.598 0-22.838-4.132-31.805-11.694-8.968-7.561-15.108-18.084-17.376-29.776a48.877 48.877 0 0 0 27.133-2.16c8.677-3.276 16.306-8.954 22.042-16.406 5.739 7.452 13.37 13.13 22.049 16.406a48.904 48.904 0 0 0 27.138 2.16Z" fill="url(#o)"/></g><defs><radialGradient id="a" cx="0" cy="0" r="1" gradientUnits="userSpaceOnUse" gradientTransform="matrix(0 107.5 -109.5 0 697.5 464.5)"><stop stop-color="#F4D8B5" stop-opacity="0"/><stop offset="1" stop-color="#F4D8B5"/></radialGradient><radialGradient id="b" cx="0" cy="0" r="1" gradientUnits="userSpaceOnUse" gradientTransform="matrix(0 107.5 -109.5 0 109.5 184.5)"><stop stop-color="#F4D8B5" stop-opacity="0"/><stop offset="1" stop-color="#F4D8B5"/></radialGradient><radialGradient id="c" cx="0" cy="0" r="1" gradientUnits="userSpaceOnUse" gradientTransform="matrix(0 50.5612 -29.1922 0 612.192 91.979)"><stop stop-color="#F093A2" stop-opacity="0"/><stop offset="1" stop-color="#F093A2"/></radialGradient><radialGradient id="d" cx="0" cy="0" r="1" gradientUnits="userSpaceOnUse" gradientTransform="matrix(0 50.5612 -29.1901 0 732.814 91.979)"><stop stop-color="#F093A2" stop-opacity="0"/><stop offset="1" stop-color="#F093A2"/></radialGradient><radialGradient id="e" cx="0" cy="0" r="1" gradientUnits="userSpaceOnUse" gradientTransform="matrix(0 25.7557 -25.0675 0 647.431 66.172)"><stop stop-color="#F36462" stop-opacity=".44"/><stop offset="1" stop-color="#F36462" stop-opacity=".73"/></radialGradient><radialGradient id="f" cx="0" cy="0" r="1" gradientUnits="userSpaceOnUse" gradientTransform="matrix(0 25.7555 -25.0621 0 697.598 66.223)"><stop stop-color="#F36462" stop-opacity=".44"/><stop offset="1" stop-color="#F36462" stop-opacity=".73"/></radialGradient><radialGradient id="g" cx="0" cy="0" r="1" gradientUnits="userSpaceOnUse" gradientTransform="matrix(0 10.9134 -9.84868 0 672.542 70.948)"><stop stop-color="#F2E149" stop-opacity="0"/><stop offset="1" stop-color="#F2E149"/></radialGradient><radialGradient id="h" cx="0" cy="0" r="1" gradientUnits="userSpaceOnUse" gradientTransform="matrix(0 29.9916 -49.181 0 672.504 29.992)"><stop stop-color="#F093A2" stop-opacity="0"/><stop offset="1" stop-color="#F093A2"/></radialGradient><radialGradient id="i" cx="0" cy="0" r="1" gradientUnits="userSpaceOnUse" gradientTransform="matrix(0 25.7555 -25.0807 0 697.579 117.786)"><stop stop-color="#F36462" stop-opacity=".44"/><stop offset="1" stop-color="#F36462" stop-opacity=".73"/></radialGradient><radialGradient id="j" cx="0" cy="0" r="1" gradientUnits="userSpaceOnUse" gradientTransform="matrix(0 25.7813 -25.0743 0 647.423 117.76)"><stop stop-color="#F36462" stop-opacity=".44"/><stop offset="1" stop-color="#F36462" stop-opacity=".73"/></radialGradient><radialGradient id="k" cx="0" cy="0" r="1" gradientUnits="userSpaceOnUse" gradientTransform="matrix(0 10.9134 -9.84868 0 672.542 113.01)"><stop stop-color="#F2E149" stop-opacity="0"/><stop offset="1" stop-color="#F2E149"/></radialGradient><radialGradient id="l" cx="0" cy="0" r="1" gradientUnits="userSpaceOnUse" gradientTransform="matrix(0 10.1174 -10.6168 0 693.007 91.979)"><stop stop-color="#F2E149" stop-opacity="0"/><stop offset="1" stop-color="#F2E149"/></radialGradient><radialGradient id="m" cx="0" cy="0" r="1" gradientUnits="userSpaceOnUse" gradientTransform="matrix(0 10.1174 -10.6168 0 652.039 91.979)"><stop stop-color="#F2E149" stop-opacity="0"/><stop offset="1" stop-color="#F2E149"/></radialGradient><radialGradient id="n" cx="0" cy="0" r="1" gradientUnits="userSpaceOnUse" gradientTransform="matrix(0 11.1189 -10.823 0 672.504 91.979)"><stop stop-color="#D78BF4" stop-opacity=".37"/><stop offset="1" stop-color="#D78BF4" stop-opacity=".74"/></radialGradient><radialGradient id="o" cx="0" cy="0" r="1" gradientUnits="userSpaceOnUse" gradientTransform="matrix(0 30.0179 -49.181 0 672.504 153.992)"><stop stop-color="#F093A2" stop-opacity="0"/><stop offset="1" stop-color="#F093A2"/></radialGradient></defs></svg>