<svg viewBox="0 0 400 400" xmlns="http://www.w3.org/2000/svg"><circle cx="200" cy="122" r="100" fill="#B499FF"/><circle cx="124" cy="199" r="100" fill="#B499FF"/><circle cx="201" cy="276" r="100" fill="#B499FF"/><circle cx="277" cy="201" r="100" fill="#B499FF"/><path d="M220 180.042a98.53 98.53 0 0 0-19.434-41.874 98.135 98.135 0 0 0-19.41 41.874 98.52 98.52 0 0 0-41.873 19.409 98.534 98.534 0 0 0 41.873 19.41 98.131 98.131 0 0 0 19.41 41.873A98.526 98.526 0 0 0 220 218.861a98.184 98.184 0 0 0 41.873-19.41A98.17 98.17 0 0 0 220 180.042Z" fill="#FFF48C"/></svg>
