<svg width="261" height="66" viewBox="0 0 475 160" fill="none" xmlns="http://www.w3.org/2000/svg" xmlns:xlink="http://www.w3.org/1999/xlink"><defs><radialGradient id="paint0_radial_103_15" cx="0" cy="0" r="1" gradientUnits="userSpaceOnUse" gradientTransform="matrix(0 35.9142 -61.5653 0 89.517 120.066)"><stop stop-color="#665C7C" stop-opacity=".35"/><stop offset=".365" stop-color="#665C7C" stop-opacity=".302"/><stop offset="1" stop-color="#665C7C"/></radialGradient><radialGradient id="paint1_radial_103_15" cx="0" cy="0" r="1" gradientUnits="userSpaceOnUse" gradientTransform="matrix(0 16.0896 -72.8199 0 236.587 30.754)"><stop stop-color="#665C7C" stop-opacity=".35"/><stop offset=".365" stop-color="#665C7C" stop-opacity=".302"/><stop offset="1" stop-color="#665C7C"/></radialGradient><radialGradient id="paint2_radial_103_15" cx="0" cy="0" r="1" gradientUnits="userSpaceOnUse" gradientTransform="matrix(0 48.3037 -37.8089 0 273.55 105.901)"><stop stop-color="#665C7C" stop-opacity=".35"/><stop offset=".365" stop-color="#665C7C" stop-opacity=".302"/><stop offset="1" stop-color="#665C7C"/></radialGradient><radialGradient id="paint3_radial_103_15" cx="0" cy="0" r="1" gradientUnits="userSpaceOnUse" gradientTransform="matrix(0 45.8923 -31.904 0 194.453 109.368)"><stop stop-color="#665C7C" stop-opacity=".35"/><stop offset=".365" stop-color="#665C7C" stop-opacity=".302"/><stop offset="1" stop-color="#665C7C"/></radialGradient><radialGradient id="paint4_radial_103_15" cx="0" cy="0" r="1" gradientUnits="userSpaceOnUse" gradientTransform="matrix(0 76.9611 -73.7256 0 401.121 77.6)"><stop stop-color="#665C7C" stop-opacity=".35"/><stop offset=".365" stop-color="#665C7C" stop-opacity=".302"/><stop offset="1" stop-color="#665C7C"/></radialGradient><radialGradient id="paint5_radial_103_15" cx="0" cy="0" r="1" gradientUnits="userSpaceOnUse" gradientTransform="matrix(0 10.436 -28.8867 0 401.459 49.255)"><stop stop-color="#665C7C" stop-opacity=".35"/><stop offset=".365" stop-color="#665C7C" stop-opacity=".302"/><stop offset="1" stop-color="#665C7C"/></radialGradient><radialGradient id="paint6_radial_103_15" cx="0" cy="0" r="1" gradientUnits="userSpaceOnUse" gradientTransform="matrix(0 20.9961 -42.9966 0 268.38 84.025)"><stop stop-color="#665C7C" stop-opacity=".35"/><stop offset=".365" stop-color="#665C7C" stop-opacity=".302"/><stop offset="1" stop-color="#665C7C"/></radialGradient><radialGradient id="paint7_radial_103_15" cx="0" cy="0" r="1" gradientUnits="userSpaceOnUse" gradientTransform="matrix(0 30.4314 -16.8032 0 210.053 30.453)"><stop stop-color="#665C7C" stop-opacity=".35"/><stop offset=".365" stop-color="#665C7C" stop-opacity=".302"/><stop offset="1" stop-color="#665C7C"/></radialGradient><radialGradient id="paint8_radial_103_15" cx="0" cy="0" r="1" gradientUnits="userSpaceOnUse" gradientTransform="matrix(0 33.9508 -40.9144 0 403.977 92.836)"><stop stop-color="#665C7C" stop-opacity=".35"/><stop offset=".365" stop-color="#665C7C" stop-opacity=".302"/><stop offset="1" stop-color="#665C7C"/></radialGradient><radialGradient id="paint9_radial_103_15" cx="0" cy="0" r="1" gradientUnits="userSpaceOnUse" gradientTransform="matrix(0 78.2775 -75.3986 0 75.399 80.744)"><stop stop-color="#665C7C" stop-opacity=".35"/><stop offset=".365" stop-color="#665C7C" stop-opacity=".302"/><stop offset="1" stop-color="#665C7C"/></radialGradient><radialGradient id="paint10_radial_103_15" cx="0" cy="0" r="1" gradientUnits="userSpaceOnUse" gradientTransform="matrix(0 30.2739 -16.8807 0 266.564 30.442)"><stop stop-color="#665C7C" stop-opacity=".35"/><stop offset=".365" stop-color="#665C7C" stop-opacity=".302"/><stop offset="1" stop-color="#665C7C"/></radialGradient></defs><symbol viewBox="0 0 475 160" xmlns="http://www.w3.org/2000/svg" id="logo-symbol-wordmark"><path d="M151.083 114.159c0-14.276-7.876-30.004-34.549-30.004-18.678-.143-29.957 5.449-42.425 13.729-9.065 6.234-16.06 16.204-21.01 25.911H40.964c-4.306 1.904-7.852 2.094-10.184 6.116a21.412 21.412 0 0 0-2.665 13.277c1.143 5.163 3.284 12.61 8.78 12.61 27.863 0 76.831.571 83.612-.309 5.949-.666 30.576-8.542 30.576-41.33Zm-71.692 9.732c28.553-22.724 42.473-9.137 33.978 0H79.391Z" fill="url(#paint0_radial_103_15)"/><path d="m191.96 15.295 101.505-.619a15.964 15.964 0 0 1 15.942 15.942 16.132 16.132 0 0 1-15.942 15.918c-1.475.595-96.865.143-96.865.143l-16.275-.143a15.94 15.94 0 0 1-15.284-22.172 15.94 15.94 0 0 1 15.284-9.688l11.635.62Z" fill="url(#paint1_radial_103_15)"/><path d="m235.956 135.788-.214-69.55a8.639 8.639 0 0 1 13.344-7.246 8.64 8.64 0 0 1 3.597 4.867c1.499 5.258 13.658 58.58 15.061 59.746 1.333.643 7.258 0 9.518-.19 2.784-4.759 6.52-15.538 18.155-15.538a15.807 15.807 0 0 1 11.315 4.627 15.791 15.791 0 0 1 4.627 11.315c-.238 4.497-.881 5.854-3.569 12.421a46.316 46.316 0 0 1-6.472 11.897 15.767 15.767 0 0 1-12.516 6.067h-34.763c-10.112 0-18.083-2.974-18.083-18.488" fill="url(#paint2_radial_103_15)"/><path d="M204.738 88.2c-.976 0-16.109 21.414-24.936 23.794-8.828 2.379-16.799-2.998-17.251-15.442a18.036 18.036 0 0 1 10.47-16.656c9.136-4.759 40.33-14.895 45.66-16.18a5.997 5.997 0 0 1 7.614 6.615c-.595 4.092-7.59 64.576-8.399 71.215a16.653 16.653 0 0 1-13.807 13.512 16.652 16.652 0 0 1-19.193-15.171 16.66 16.66 0 0 1 .878-6.764c4.378-11.612 19.559-44.923 18.964-44.923Z" fill="url(#paint3_radial_103_15)"/><path d="M474.847 133.551c0 15.133-8.185 21.01-22.605 21.01h-90.417c-14.276 0-36.047-.262-34.334-25.769 0 0 6.496-100.268 6.496-112.189 0-7.138 6.139-17.129 16.013-16.582 7.543.405 9.5 5 11.112 9.944h15.823s44.352-2.38 68.217-2.38c13.8 0 17.393 6.806 19.558 22.486 4.022 28.91 10.137 103.48 10.137 103.48Zm-31.361-1.975c5.687 0 5.639-2.522 5.639-6.853 0-4.33-5.02-78.52-6.162-83.636-.762-3.497-1.214-7.709-6.187-7.709h-76.14s-2.546 78.52-2.641 90.417c0 5.52 3.926 7.448 8.066 7.567 5.687 0 61.174.214 77.425.214Z" fill="url(#paint4_radial_103_15)"/><path d="M384.953 59.647c-6.163.476-11.231-2.903-12.254-8.519-.904-5.02 3.07-12.587 9.827-12.301 13.206.595 30.647 1.76 41.544 2.665a7.136 7.136 0 0 1 6.163 5.972 6.93 6.93 0 0 1-1.137 5.21 6.917 6.917 0 0 1-4.502 2.856c-6.02 1.023-29.814 3.331-39.641 4.117Z" fill="url(#paint5_radial_103_15)"/><path d="M288.493 64.62a15.94 15.94 0 0 1 21.862 8.736 15.943 15.943 0 0 1-10.679 20.982c-12.849 1.904-63.72 10.47-63.72 10.47a8.665 8.665 0 0 1-10.108-5.648 8.659 8.659 0 0 1 4.54-10.651c7.614-3.022 37.142-14.586 58.105-23.89Z" fill="url(#paint6_radial_103_15)"/><path d="M222.607 50.486s-3.14 10.398-11.73 10.398-11.897-10.398-11.897-10.398c-1.594-7.138-10.636-38.974-2.142-46.47 8.495-7.494 26.174-3.544 29.338 4.426 2.57 6.687-2.926 35.953-3.569 42.044Z" fill="url(#paint7_radial_103_15)"/><path d="M443.011 104.998c-3.355-6.615-18.845-9.517-29.695-20.2 7.4.594 12.254 1.427 17.012.832 8.019-1.023 11.588-6.71 11.088-13.872a13.75 13.75 0 0 0-13.634-12.872c-11.206.999-50.966 6.448-54.916 6.971-4.473.619-8.304 3.474-8.304 8.304a8.567 8.567 0 0 0 7.329 8.304c3.354.405 11.706.857 15.775 1.357-6.448 3.593-23.794 10.374-24.603 23.508 0 12.087 8.899 21.605 21.867 19.035 12.515-2.522 3.093-29.243 14.419-38.641 7.019 23.032 7.852 30.099 18.678 36.405 11.611 6.709 33.383-2.618 24.984-19.131Z" fill="url(#paint8_radial_103_15)"/><path d="M134.855 47.084a15.943 15.943 0 0 1 11.273 27.214 15.943 15.943 0 0 1-11.273 4.67c-21.747 0-78.686-.167-78.686-.167-5.996 34.977-14.277 52.347-14.277 52.347-11.254 31.789-29.195 31.955-37.69 22.223-6.9-7.875-4.615-17.226 1.88-26.458 21.415-30.576 25.103-57.558 22.771-79.9-.952-9.304-2.38-17.584 10.327-20.725 16.346-4.021 50.562-13.325 88.442-23.2 7.495-1.95 20.011 0 21.153 15.871.785 10.589-7.924 16.133-15.324 17.68-7.399 1.546-72.143 4.758-74.784 4.758 0 2.832-.166 8.304-.166 8.304l76.354-2.617Z" fill="url(#paint9_radial_103_15)"/><path d="M250.827 49.201s2.141 10.66 10.707 11.469c8.566.809 12.825-9.232 12.825-9.232 2.26-6.924 14.276-37.809 6.496-46.041-7.781-8.233-25.793-6.02-29.624 1.618-3.188 6.4-.476 35.976-.404 42.186Z" fill="url(#paint10_radial_103_15)"/></symbol><use xlink:href="#logo-symbol-wordmark" /></svg>
